<svg version="1.2" xmlns="http://www.w3.org/2000/svg" viewBox="0 0 1594 335" width="1594" height="335">
	<title>DAIKIN_logo-svg</title>
	<style>
		.s0 { fill: #44c8f5 } 
		.s1 { fill: #231f20 } 
		.s2 { fill: #00a0e4 } 
	</style>
	<g id="layer1">
		<g id="g53028">
			<path id="path53030" class="s0" d="m0.4 335v-335h362.9z"/>
		</g>
		<g id="g53032">
			<path id="path53034" class="s1" d="m0.3 167.6v-167.6h181.5z"/>
		</g>
		<g id="g53056">
			<path id="path53038" fill-rule="evenodd" class="s2" d="m953.8 72.7l-47.3 189.5h-83.7l47.3-189.5zm-191.6 0l34.8 189.5h-81.8l-5.7-31.6h-76.8l-17.9 31.6h-55.4l107.7-189.5zm-61.5 109.8l-10-54.6-31 54.6zm635.4-109.8l-47.2 189.5h-83.7l47.2-189.5zm-226.3 90.2l71.7 99.3h-96.8l-42.8-65.4-16.3 65.4h-80l47.3-189.5h80.2l-15.7 62 71.8-62h85.8zm-533.9-10c0 66.1-57 109.2-114.9 109.2h-41.2-104l47.3-189.4h104.7 21.6c0 0 86.5 2.5 86.5 80.2zm-116.7-34.8h-26.9l-26.1 102.2h29.6c52.5 0 57.9-61.5 57.9-61.5 3-38.1-24.9-40.6-34.5-40.7zm1134.8-45.5l-47.4 189.5h-92.7l-37.3-112.5-28.2 112.5h-57.9l47.3-189.5h93.1l37.2 111.6 27.9-111.6z"/>
		</g>
	</g>
</svg>