<svg version="1.2" xmlns="http://www.w3.org/2000/svg" viewBox="0 0 1545 324" width="1545" height="324"><style>.a{fill:#c00}</style><path class="a" d="m359.4 236.9c-23.4 33.7-62.4 55.5-106.5 55.5-71.7 0-129.9-58.1-129.9-129.9 0-71.8 58.2-129.9 129.9-129.9 25.3 0 48.9 7.2 68.9 19.7l-68.8 110.2 129.2-74.5c-20.8-32.2-51.6-57.2-87.9-70.6-28.8-10.6-60-16.4-92.5-16.4-32.6 0-63.6 5.8-92.4 16.4-29.7 10.9-55.8 29.7-75.5 53.7-20.6 24.8-32.9 56.6-32.9 91.4 0 34.8 12.3 66.6 32.8 91.4 19.7 24 45.8 42.8 75.5 53.7 28.8 10.6 59.9 16.4 92.3 16.4 20.8 0 40.9-2.4 60.3-6.8 40.2-9.3 75.8-30.7 102.9-60.2l-5.5-20.2z"/><path class="a" d="m904.5 56.2c-7.1 0-13.9 1.6-20 4.4l-75.1 35.1c-3.7-22.4-23.2-39.5-46.6-39.5-7.2 0-13.9 1.6-19.9 4.4l-91.9 42.9h64.5v212.7h94.5v-189.1c0-13 10.6-23.6 23.6-23.6 13.1 0 23.6 10.6 23.6 23.6v189.1h94.5v-212.8c0-26.1-21.1-47.4-47.3-47.4z"/><path class="a" d="m1497 56.2c-7.1 0-13.9 1.6-20 4.4l-75.1 35.1c-3.7-22.4-23.1-39.5-46.6-39.5-7 0-13.9 1.6-20 4.4l-91.8 42.9h64.5v212.7h94.5v-189.1c0-13 10.6-23.6 23.6-23.6 13 0 23.6 10.6 23.6 23.6v189.1h94.5v-212.8c0-26.1-21.1-47.4-47.3-47.4z"/><path class="a" d="m1124.9 56.2c-73.9 0-133.8 60-133.8 133.9 0 73.9 59.9 133.9 133.8 133.9 73.9 0 133.8-60 133.8-133.9 0-73.9-59.9-133.9-133.8-133.9zm30.5 248c-15.7 4.3-31.9-5-36.1-20.8l-45.8-171.2c-4.2-15.8 5.1-31.9 20.9-36.2 15.7-4.2 31.9 5.1 36.1 20.9l45.8 171.2c4.2 15.8-5.1 31.9-20.9 36.1z"/><path class="a" d="m588.2 316h94.4l-54.3-202.9c-8.9-32.8-38.7-56.9-74.2-56.9-9.2 0-18.1 1.6-26.3 4.6l-117.1 42.6h120.5l20.6 76.9c-20-17.3-46.1-27.7-74.5-27.7-21.3 0-41.1 5.4-58.5 14.9-13.5 7.4-25 18.2-33 31.4-6.9 11.2-10.8 24.2-10.8 38.3 0 14 3.9 27.2 10.8 38.2 8 13.2 19.5 24 33 31.5 17.4 9.5 37.4 14.9 58.5 14.9 40.7 0 76.7-19.9 98.8-50.6l11.9 44.6zm-24.2-78.8c0 26.1-21.1 47.4-47.3 47.4-26.2 0-47.3-21.1-47.3-47.4 0-26.2 21.1-47.3 47.3-47.3 26.1 0 47.3 21.1 47.3 47.3z"/></svg>