<svg version="1.2" xmlns="http://www.w3.org/2000/svg" viewBox="0 0 1552 432" width="1552" height="432">
	<title>logo2-svg</title>
	<defs>
		<clipPath clipPathUnits="userSpaceOnUse" id="cp1">
			<path d="m1552 0v431.72h-1552v-431.72z"/>
		</clipPath>
	</defs>
	<style>
		.s0 { fill: #004da7 } 
		.s1 { fill: #cdde00 } 
		.s2 { fill: #565957 } 
	</style>
	<g id="Clip-Path" clip-path="url(#cp1)">
		<g id="Layer">
			<path id="Layer" class="s0" d="m0 243.7h19.5v88.2h46.1v16.4h-65.6z"/>
			<path id="Layer" class="s0" d="m82.7 243.7h19.5v67.2c-0.1 3.1 0.5 6.3 1.6 9.3 1.1 2.6 2.8 5 4.9 6.9 2.2 1.9 4.7 3.4 7.5 4.3 3.1 1 6.4 1.5 9.7 1.4 3.3 0.1 6.6-0.4 9.8-1.4 2.7-1 5.3-2.4 7.5-4.3 2.1-2 3.7-4.3 4.8-7 1.2-3 1.8-6.2 1.7-9.4v-67h19.5v67.2c0.1 5.5-1 10.9-3.1 16-2 4.7-5 8.9-8.8 12.4-3.9 3.6-8.5 6.3-13.6 8.1-5.6 1.9-11.5 2.9-17.5 2.8-6 0.1-12-0.9-17.6-2.8-5.1-1.8-9.7-4.5-13.7-8.1-3.8-3.4-6.8-7.7-8.8-12.4-2.1-5.1-3.1-10.6-3-16z"/>
			<path id="Layer" class="s0" d="m298.3 321.5q3.6 3.3 7.8 5.6 4 2.3 8.3 3.9c3.4 1.1 7 1.7 10.6 1.7q2.9 0 5.8-0.8c1.7-0.5 3.4-1.3 4.8-2.4 1.6-1 2.9-2.5 3.8-4.2 0.8-1.7 1.2-3.6 1.1-5.5 0.1-2.2-0.7-4.4-2.1-6.1-1.6-2-3.6-3.6-5.8-4.9q-3.9-2.3-8.1-4c-2.9-1.2-6.1-2.6-9.2-3.9-3.2-1.4-6.2-3-9.2-4.7-3-1.6-5.7-3.6-8.1-5.9-2.4-2.2-4.4-4.9-5.8-7.8-1.5-3.3-2.2-6.9-2.1-10.5 0-4.2 0.9-8.4 2.7-12.1 1.8-3.8 4.4-7.1 7.5-9.8 3.4-2.8 7.2-4.9 11.4-6.3 4.5-1.6 9.4-2.4 14.2-2.3 4.7-0.1 9.4 0.5 13.9 1.7q5.2 1.5 10 3.9c2.9 1.5 5.6 3.4 8 5.6l-8.5 15.8q-3.2-2.6-6.8-4.6-3.6-1.8-7.5-3.1c-3-1-6.1-1.5-9.3-1.5-2.1 0-4.2 0.3-6.3 1-1.8 0.5-3.5 1.4-5.1 2.5-1.4 1.1-2.6 2.5-3.4 4-0.8 1.5-1.3 3.2-1.3 4.9 0 2.2 0.8 4.3 2.2 6 1.6 1.8 3.6 3.4 5.7 4.6q3.9 2.2 8.1 3.8l9.1 3.8q4.8 2 9.3 4.5c2.9 1.6 5.6 3.6 8 5.9 2.4 2.4 4.3 5.1 5.7 8.1 1.5 3.4 2.2 7.2 2.1 10.9 0 4.1-0.7 8.1-2.3 11.8-1.6 3.7-4 7-6.9 9.8-3.2 2.9-7 5.1-11.1 6.6-4.8 1.7-9.8 2.5-14.9 2.4q-4.2 0.1-8.4-0.5-3.7-0.6-7.3-1.7-3.2-0.9-6.3-2.2-2.8-1.2-5.3-2.7c-3.5-1.9-6.7-4.4-9.5-7.2z"/>
			<path id="Layer" class="s0" d="m383.3 243.7h19.5v44.3h48.7v-44.4h19.5v104.9h-19.5v-43.9h-48.7v43.9h-19.5z"/>
			<path id="Layer" fill-rule="evenodd" class="s0" d="m606.3 243.7c2.8 0 39.8 0 42 0 2.2 0 4.1 0.3 5.8 0.5q2.2 0.3 4.4 0.9 1.9 0.5 3.7 1.4c5.2 2.2 9.7 6 12.8 10.8 3.3 5.3 5 11.5 4.8 17.7 0 3.1-0.4 6.2-1.2 9.2-0.8 2.9-2 5.7-3.6 8.3-1.5 2.5-3.4 4.7-5.7 6.7-2.2 1.9-4.7 3.5-7.5 4.5v0.3l1 1.2q0.6 0.7 1.1 1.6l1.5 2.4 21.9 39h-21.7l-21.2-39h-18.5v39h-19.5zm36.8 49.2c4.5 0.2 8.9-1.4 12.3-4.4 1.6-1.6 2.8-3.5 3.6-5.6 0.7-2.1 1.1-4.3 0.9-6.5 0.1-2.3-0.3-4.6-0.9-6.8-0.6-2-1.7-3.8-3.2-5.2-1.7-1.5-3.7-2.6-6-3.2-3-0.8-6.2-1.2-9.4-1.1h-14.6v32.8z"/>
			<path id="Layer" class="s0" d="m709 243.7h64v16.4h-44.5v27.4h35.9v16.4h-35.9v28h46.8v16.4h-66.3z"/>
			<path id="Layer" class="s0" d="m276.2 348.4l-33.8-53.3 32.6-51.4h-22.3l-21.5 33.8-21.4-33.8h-22.2l32.6 51.4-33.9 53.3h22.2l22.7-35.8 22.9 35.8z"/>
			<path id="Layer" fill-rule="evenodd" class="s0" d="m555.9 322.1h-36.4l-9.5 26.4h-20.1l37.8-104.8h20l37.8 104.8h-20.1zm-5.9-16.5l-12.3-34.1-12.3 34.1z"/>
			<path id="Layer" class="s0" d="m1189.7 55.5c0 3.4-1 6.7-3 9.6-1.9 2.8-4.6 5-7.7 6.3-3.2 1.3-6.7 1.7-10 1-3.4-0.7-6.5-2.3-8.9-4.7-2.4-2.5-4-5.6-4.7-8.9-0.7-3.4-0.3-6.8 1-10 1.3-3.2 3.5-5.9 6.4-7.8 2.8-1.9 6.2-2.9 9.6-2.9 2.3 0 4.5 0.5 6.6 1.3 2.1 0.9 4 2.2 5.6 3.8 1.6 1.6 2.9 3.5 3.8 5.6 0.9 2.1 1.3 4.4 1.3 6.7z"/>
			<path id="Layer" fill-rule="evenodd" class="s0" d="m838 87c3.2 3.3 5.1 7.7 5.1 12.3 0 3.4-1 6.8-2.9 9.6-1.9 2.9-4.6 5.1-7.8 6.4-3.2 1.3-6.7 1.7-10 1-3.4-0.7-6.5-2.3-8.9-4.8-2.4-2.4-4-5.5-4.7-8.8-0.7-3.4-0.3-6.9 1-10 1.3-3.2 3.5-5.9 6.4-7.8 2.8-1.9 6.1-2.9 9.6-2.9 4.6 0 9 1.8 12.2 5zm-5.7 18.9c1.8-1.8 2.8-4.1 2.8-6.6 0-1.8-0.6-3.7-1.6-5.2-1-1.5-2.5-2.7-4.2-3.4-1.7-0.7-3.5-0.9-5.4-0.5-1.8 0.3-3.4 1.2-4.7 2.5-1.3 1.3-2.2 3-2.6 4.8-0.3 1.8-0.1 3.7 0.6 5.4 0.7 1.7 1.9 3.1 3.4 4.1 1.5 1.1 3.3 1.6 5.2 1.6 2.4 0 4.8-1 6.5-2.7z"/>
			<path id="Layer" fill-rule="evenodd" class="s0" d="m1541.3 201.5c2.1 0.8 4 2.1 5.6 3.7 1.6 1.6 2.9 3.5 3.8 5.6 0.8 2.1 1.3 4.4 1.3 6.7 0 3.4-1 6.7-2.9 9.6-1.9 2.8-4.6 5.1-7.8 6.4-3.1 1.3-6.6 1.6-10 1-3.3-0.7-6.4-2.4-8.8-4.8-2.5-2.4-4.1-5.5-4.8-8.8-0.6-3.4-0.3-6.9 1-10.1 1.3-3.1 3.5-5.8 6.4-7.7 2.8-1.9 6.2-3 9.6-3 2.3 0 4.5 0.5 6.6 1.4zm-6.6 25.2c2.4 0 4.8-1 6.5-2.7 1.8-1.7 2.8-4.1 2.8-6.5 0-1.9-0.5-3.7-1.6-5.2-1-1.5-2.4-2.7-4.1-3.4-1.7-0.7-3.6-0.9-5.4-0.6-1.8 0.4-3.5 1.3-4.8 2.6-1.3 1.3-2.2 2.9-2.5 4.8-0.4 1.8-0.2 3.6 0.5 5.3 0.7 1.7 1.9 3.2 3.4 4.2 1.6 1 3.4 1.6 5.2 1.6z"/>
			<path id="Layer" class="s0" d="m1031.1 173.2v34.7h-34.6v-34.7z"/>
			<path id="Layer" class="s0" d="m809.7 187.7v4.8h-118.4v-4.8z"/>
			<path id="Layer" class="s0" d="m827.6 114.8h-4.9v75.3l-54.1 53.8-1.2 1.3 3.4 3.4 57.1-56.8 1.2-1.3-1.5-1.5z"/>
			<path id="Layer" class="s0" d="m838.8 102.2l-2.2 4.4 172.1 87.7 1.6 0.8 2.2-4.3-172.7-88z"/>
			<path id="Layer" class="s0" d="m1401.9 149.8l-1.6-0.7-2.1 4.4 124.7 60.2 1.6 0.8 2.1-4.3z"/>
			<path id="Layer" class="s0" d="m1172.1 52.2l-156.6 132.7 3.1 3.7 156.6-132.7z"/>
			<path id="Layer" class="s0" d="m1156.9 52.4v4.8h-73.6v-4.8z"/>
			<path id="Layer" class="s0" d="m1383.1 150.7v4.9h-196v-4.9z"/>
			<path id="Layer" class="s0" d="m1174.8 71v65.6h-4.9v-65.6z"/>
			<path id="Layer" class="s0" d="m1394.7 24.8v128h-4.9v-128z"/>
			<path id="Layer" class="s1" d="m835.3 243.2v105.5h-20.3v-105.5z"/>
			<path id="Layer" class="s1" d="m862.8 295.6c-0.1-7.2 1.3-14.5 4.1-21.2 2.7-6.4 6.6-12.2 11.6-17.1 4.9-4.9 10.8-8.7 17.3-11.3 6.9-2.8 14.3-4.2 21.8-4.1q4.6 0 9.2 0.6 4 0.5 8 1.6 3.4 1 6.8 2.4 2.8 1.1 5.5 2.6c3.6 1.9 6.9 4.3 9.8 7.2l-9.3 14.1q-3.9-3.2-8.3-5.6-4.4-2.2-9.2-3.8c-3.8-1.1-7.7-1.7-11.7-1.7-5.1-0.1-10.3 0.9-15 2.9-4.3 1.8-8.1 4.5-11.3 7.8-3.1 3.3-5.5 7.2-7.1 11.5-1.6 4.4-2.4 9.1-2.4 13.8 0 4.9 0.8 9.8 2.5 14.3 1.6 4.4 4 8.5 7.2 11.9 3.1 3.5 7 6.3 11.3 8.2 4.7 2.2 9.8 3.2 15 3.1q3.3 0 6.6-0.6 3.1-0.5 6-1.5 2.7-0.9 5.3-2.1c1.6-0.8 3.1-1.6 4.4-2.4 3.2-1.9 6.1-4.1 8.7-6.6l10.2 13.7c-3.3 3.2-6.9 6.1-10.9 8.4q-2.8 1.8-5.9 3.2-3.5 1.6-7.2 2.7-4.1 1.3-8.4 2-4.9 0.7-9.7 0.6c-5.2 0.1-10.4-0.6-15.5-1.9-4.6-1.2-9.1-3-13.4-5.4-4-2.3-7.7-5.1-11-8.4-3.2-3.2-6-6.9-8.3-11-2.3-4.1-4.1-8.5-5.2-13.1-1.1-4.8-1.7-9.8-1.5-14.8z"/>
			<path id="Layer" class="s1" d="m1003.3 260.1h-35v-16.4h89.5v16.4h-35v88.4h-19.5z"/>
			<path id="Layer" class="s1" d="m1085.1 55.5c0 3.4-1.1 6.7-3 9.6-1.9 2.8-4.6 5-7.7 6.3-3.2 1.3-6.7 1.7-10 1-3.4-0.7-6.5-2.3-8.9-4.7-2.4-2.5-4-5.6-4.7-8.9-0.7-3.4-0.3-6.8 1-10 1.3-3.2 3.5-5.9 6.4-7.8 2.8-1.9 6.2-2.9 9.6-2.9 2.3 0 4.5 0.5 6.6 1.3 2.1 0.9 4 2.2 5.6 3.8 1.6 1.6 2.9 3.5 3.8 5.6 0.8 2.1 1.3 4.4 1.3 6.7z"/>
			<path id="Layer" fill-rule="evenodd" class="s1" d="m693.1 173.2v34.7h-34.6v-34.7zm-25.6 9.1v16.6h16.6v-16.6z"/>
			<path id="Layer" fill-rule="evenodd" class="s1" d="m1189.7 134.9v34.6h-34.6v-34.6zm-25.6 25.6h16.5v-16.6h-16.6z"/>
			<path id="Layer" class="s1" d="m842.7 190.4c0 3.4-1 6.8-2.9 9.6-1.9 2.8-4.6 5.1-7.8 6.4-3.1 1.3-6.6 1.6-10 0.9-3.3-0.6-6.4-2.3-8.8-4.7-2.4-2.5-4.1-5.5-4.7-8.9-0.7-3.4-0.4-6.8 0.9-10 1.4-3.2 3.6-5.9 6.4-7.8 2.9-1.9 6.2-2.9 9.6-2.9 2.3 0 4.6 0.5 6.7 1.3 2.1 0.9 4 2.2 5.6 3.8 1.6 1.6 2.9 3.5 3.7 5.6 0.9 2.1 1.3 4.4 1.3 6.7z"/>
			<path id="Layer" class="s1" d="m1408.9 135.7v34.6h-34.6v-34.6z"/>
			<path id="Layer" fill-rule="evenodd" class="s0" d="m1408.9 0.1v34.5h-34.6v-34.5zm-25.5 8.9v16.6h16.5v-16.6z"/>
			<path id="Layer" class="s2" d="m15.6 389.2l-6.9 2.2 0.5 1c3 6.7 6.4 15.6 10.1 26.5l0.3 1 7.1-2.5-0.4-1c-3.3-9.1-6.8-18-10.3-26.3z"/>
			<path id="Layer" class="s2" d="m52.6 392.2l0.4-1-7.3-2.9-0.4 1.1q-5.7 16.4-13 32.1h-32.2v6.2h61.2v-6.2h-21.3c4.8-10.3 9.1-20.2 12.6-29.3z"/>
			<path id="Layer" class="s2" d="m59.8 381.4h-23.5l-0.3-0.8c-0.4-1-0.9-2.4-1.5-4.1-1-2.7-1.8-4.9-2.3-6.3l-0.3-0.9-6.9 1.8 0.4 1.1q1.8 4.5 3 9.2h-26.8v6.9h58.2z"/>
			<path id="Layer" class="s2" d="m92.5 414.8v-1.6l-1.4 1-6.4 4.5v-27.8h-14v6.7h7.3v22.1c0.1 1-0.1 2-0.5 2.9-0.4 0.9-0.9 1.7-1.7 2.3l-0.8 0.8 5.6 5.6 0.7-0.8q0.6-0.6 1.1-1.3 0.9-1.2 2.2-2.2 4.2-3.3 8.9-5.9l0.7-0.5-0.6-0.9q-0.8-2.4-1.1-4.9z"/>
			<path id="Layer" class="s2" d="m81.8 386.1l0.7 0.8 5.6-4.6-0.7-0.8c-1.7-2.1-4.8-5.4-9.7-10.2l-0.7-0.7-5.1 4.4 0.7 0.8c3.7 4 6.7 7.4 9.2 10.3z"/>
			<path id="Layer" fill-rule="evenodd" class="s2" d="m133.1 413.3h0.9v1c-0.5 6.2-0.9 10.4-1.3 12.4-2.4 6.7-6.6 7-12.2 0.8-2.2-3.2-3.6-7-3.8-10.9q-0.8-4.9-0.7-9.8c0-0.8 0-2 0-3.4h-11.4v28.6h-6.9v-28.6h-11.4v-6.7h11.4v-16.8h-10.9v-6.7h36v22.3c0.1 8.2 0.4 13.8 0.7 16.8 0 3.6 0.8 7.2 2.5 10.4h0.3q0.1 0 0.1-0.1 0 0-0.1-0.1 0.8-5.1 1-10.3v-1.5l1.4 0.5q2.1 1.3 4.4 2.1zm-17.5-16.8v-16.8h-11.3v16.9z"/>
			<path id="Layer" fill-rule="evenodd" class="s2" d="m188.1 390.9h17.1v5.9h-39v1.3h-7.3v4.9l1.2-1.2 0.8 0.7c2.9 2.7 5.3 5.5 7.8 8.1v-12.1h32.7v24.4q0.1 1.6-0.4 3.1-0.4 1.4-1.4 2.6c-0.9 0.8-1.9 1.4-3 1.8-1 0.3-2.2 0.5-3.3 0.4h-10.2v-1.1q0-2.1-0.7-4.2l-0.5-1.4h4.9c2.3 0.3 4 0.3 5.3 0.3h0.6q0.5 0 1-0.1 0.4-0.1 0.8-0.4 0.2-0.3 0.3-0.6 0.1-0.3 0-0.6v-2h-19.8v10.6h-6.4v-19.5l-4.1 4-0.7-0.9-5.2-5.9v22.3h-6.2v-20.6c-1.8 4.1-4.1 8-6.7 11.6l-1.2 1.7-0.6-2-0.7-1.9c-0.2-0.3-0.6-1.3-1.3-2.8l-0.3-0.6 0.4-0.4c4.2-5.5 7.3-11.7 9.3-18.3h-8.7v-6.2h9.7v-3.4l-5.1 2.1-0.4-1.1c-0.2-0.5-0.4-1.3-0.8-2.5q-1.3-5.1-3.2-10l-0.5-1.1 5.8-1.6 0.3 1.1c0.1 0.7 0.4 1.9 1 3.2 0.5 1.4 1.5 4 2.7 8.1v-16.6h6.6v14q2-4.2 3.5-8.7l0.4-1.1 4.1 1.6v-0.8h14.6v-5.5h6.3v5.5h16.1v6h-16.1v2.1h14.6v5.7h-14.6zm6.4 15.9v-2.4h-19.8v2.4zm-19.8 5.6v2.4h19.8v-2.3zm6.6-21.5v-2.2h-13.7v-5.6h13.1v-2.2h-14.6v-0.7q-0.2 0.3-0.3 0.6c-1.7 3.9-2.9 7-3.8 8.8l-0.4 1-3.5-1.7v3h7.2v-1z"/>
			<path id="Layer" fill-rule="evenodd" class="s2" d="m276.6 400.7l-5.8 4.3-0.6-0.9c-0.6-1.4-2.7-3.9-5.5-7.6-1-1.1-1.7-2-2.1-2.5l-0.5-0.9 4.9-3.9v-6.4h-23.3q3.4 2.4 6.2 5.5l0.7 0.8-3 3q6.6-3.8 12.7-8.2l0.9-0.7 4.1 5.6-1 0.6c-7.9 5.5-16.3 10.3-25.1 14.4q0.8 0 1.5 0h11.9c2.6 0 3.3-1.2 3.5-2.2 0 0 0-0.4 0.3-1.2 0.1-1.6 0.5-3.2 0.5-4.5v-1h1q0.7 0.1 1.4 0.4l4.5 1.5v1c-0.5 2.3-0.9 4.4-1.2 6.2-0.6 2.7-2.5 6-8.7 6h-5.7v12.7h13.7v-11.3h6.7v20.3h-6.7v-2.5h-41.1v-17.8h6.7v11.3h13.8v-12.7h-1.5c-1.5 0.2-3.1 0-4.5-0.5-1.5-0.5-2.8-1.4-3.9-2.5l-2.7 1c-2.8 1.1-6.9 2.7-12.1 4.5l-0.9 0.3-1.7-3.3-1-1.8-0.6-1.2 1.3-0.3c2.7-0.8 5.5-1.6 8.2-2.5l-0.6-0.3-4.5-2-1.2-0.6 0.8-1c2.3-3.3 4.2-6.8 5.6-10.5h-6.6v-13h25.9l-0.7-1.5-1.1-3.4 6.9-2.2 0.2 1.1c0.4 1.1 1 2.7 1.7 4.9l0.5 1h25.1v13h-6.9l0.5 0.5q4.3 4.6 8.1 9.8zm-54 2.4c2.6-0.9 5-1.8 7.4-2.8v-14.7h6.2v11.6q4.6-2.2 8.8-4.4h-0.3c-3.1-3.2-5.5-5.5-7-6.8l-0.9-0.8 3-2.7h-17.1v5.3l0.5-1 6.2 2.6-0.4 1q-2.7 6.3-6.1 12.2z"/>
		</g>
	</g>
</svg>